<svg width="381" height="139" viewBox="0 0 381 139" fill="none" xmlns="http://www.w3.org/2000/svg">
<path d="M10.494 87.012C12.078 89.784 13.728 92.226 15.444 94.338C17.226 96.45 19.206 98.1 21.384 99.288C23.562 100.476 26.037 101.07 28.809 101.07C32.505 101.07 35.475 100.047 37.719 98.001C39.963 95.955 41.085 93.348 41.085 90.18C41.085 87.078 40.359 84.603 38.907 82.755C37.455 80.907 35.541 79.422 33.165 78.3C30.855 77.112 28.38 76.056 25.74 75.132C24.024 74.538 22.11 73.779 19.998 72.855C17.886 71.865 15.873 70.644 13.959 69.192C12.045 67.674 10.461 65.826 9.207 63.648C8.019 61.47 7.425 58.797 7.425 55.629C7.425 52.197 8.283 49.128 9.999 46.422C11.715 43.716 14.091 41.604 17.127 40.086C20.163 38.502 23.628 37.71 27.522 37.71C31.284 37.71 34.551 38.436 37.323 39.888C40.161 41.274 42.57 43.089 44.55 45.333C46.53 47.511 48.081 49.821 49.203 52.263L41.976 56.421C41.118 54.705 40.029 53.022 38.709 51.372C37.389 49.722 35.772 48.369 33.858 47.313C32.01 46.257 29.733 45.729 27.027 45.729C23.265 45.729 20.526 46.653 18.81 48.501C17.094 50.283 16.236 52.296 16.236 54.54C16.236 56.454 16.731 58.236 17.721 59.886C18.711 61.47 20.361 62.988 22.671 64.44C25.047 65.826 28.248 67.212 32.274 68.598C34.122 69.258 36.069 70.116 38.115 71.172C40.161 72.228 42.042 73.581 43.758 75.231C45.54 76.815 46.992 78.762 48.114 81.072C49.236 83.316 49.797 86.022 49.797 89.19C49.797 92.226 49.203 94.965 48.015 97.407C46.893 99.849 45.309 101.928 43.263 103.644C41.283 105.36 39.006 106.68 36.432 107.604C33.924 108.528 31.284 108.99 28.512 108.99C24.75 108.99 21.252 108.198 18.018 106.614C14.85 104.964 12.045 102.819 9.603 100.179C7.227 97.473 5.28 94.602 3.762 91.566L10.494 87.012ZM164.268 46.62V38.7H195.255V46.62H164.268ZM164.268 74.34V66.42H194.265V74.34H164.268ZM159.615 38.7H168.03V108H159.615V38.7ZM209.087 46.62V38.7H253.142V46.62H235.322V108H226.907V46.62H209.087ZM271.937 38.7H280.352V108H271.937V38.7ZM311.054 73.35C311.054 78.564 312.176 83.217 314.42 87.309C316.73 91.401 319.865 94.635 323.825 97.011C327.785 99.387 332.273 100.575 337.289 100.575C342.371 100.575 346.859 99.387 350.753 97.011C354.713 94.635 357.815 91.401 360.059 87.309C362.369 83.217 363.524 78.564 363.524 73.35C363.524 68.136 362.369 63.483 360.059 59.391C357.815 55.299 354.713 52.065 350.753 49.689C346.859 47.313 342.371 46.125 337.289 46.125C332.273 46.125 327.785 47.313 323.825 49.689C319.865 52.065 316.73 55.299 314.42 59.391C312.176 63.483 311.054 68.136 311.054 73.35ZM302.144 73.35C302.144 68.268 303.002 63.582 304.718 59.292C306.5 54.936 308.975 51.174 312.143 48.006C315.311 44.772 319.04 42.264 323.33 40.482C327.62 38.634 332.273 37.71 337.289 37.71C342.371 37.71 347.024 38.634 351.248 40.482C355.538 42.264 359.267 44.772 362.435 48.006C365.603 51.174 368.045 54.936 369.761 59.292C371.543 63.582 372.434 68.268 372.434 73.35C372.434 78.366 371.543 83.052 369.761 87.408C368.045 91.764 365.603 95.559 362.435 98.793C359.267 101.961 355.538 104.469 351.248 106.317C347.024 108.099 342.371 108.99 337.289 108.99C332.273 108.99 327.62 108.099 323.33 106.317C319.04 104.469 315.311 101.961 312.143 98.793C308.975 95.559 306.5 91.764 304.718 87.408C303.002 83.052 302.144 78.366 302.144 73.35ZM335.705 78.3H346.595L376.295 108H365.405L335.705 78.3Z" fill="#9EC8B9"/>
<path d="M128 45.7273L151 75L128 104.273M82 104.273L59 75L82 45.7273M114.857 29L95.1429 121" stroke="#9EC8B9" stroke-width="7" stroke-linecap="round" stroke-linejoin="round"/>
<path d="M138.064 27.456L142 16.2H145.288L138.424 33.888L133.24 22.008L128.056 33.888L121.192 16.2H124.48L128.464 27.456L133.24 15.36L138.064 27.456ZM152.693 33V30.504H161.165V33H152.693ZM152.693 18.696V16.2H161.165V18.696H152.693ZM152.693 25.224V22.776H160.685V25.224H152.693ZM150.941 16.2H153.725V33H150.941V16.2ZM170.412 24.336V22.944H173.124C173.652 22.944 174.116 22.856 174.516 22.68C174.916 22.504 175.228 22.256 175.452 21.936C175.676 21.6 175.788 21.2 175.788 20.736C175.788 20.032 175.54 19.488 175.044 19.104C174.548 18.72 173.908 18.528 173.124 18.528H171.084V30.672H173.436C174.076 30.672 174.644 30.568 175.14 30.36C175.636 30.152 176.028 29.84 176.316 29.424C176.604 29.008 176.748 28.488 176.748 27.864C176.748 27.416 176.66 27.024 176.484 26.688C176.324 26.336 176.092 26.048 175.788 25.824C175.5 25.584 175.156 25.416 174.756 25.32C174.356 25.208 173.916 25.152 173.436 25.152H170.412V23.592H173.604C174.42 23.592 175.188 23.68 175.908 23.856C176.628 24.032 177.268 24.304 177.828 24.672C178.404 25.04 178.852 25.512 179.172 26.088C179.492 26.664 179.652 27.352 179.652 28.152C179.652 29.256 179.388 30.168 178.86 30.888C178.348 31.608 177.636 32.144 176.724 32.496C175.828 32.832 174.788 33 173.604 33H168.252V16.2H173.316C174.372 16.2 175.3 16.352 176.1 16.656C176.916 16.96 177.548 17.424 177.996 18.048C178.46 18.672 178.692 19.464 178.692 20.424C178.692 21.256 178.46 21.968 177.996 22.56C177.548 23.136 176.916 23.576 176.1 23.88C175.3 24.184 174.372 24.336 173.316 24.336H170.412ZM199.054 28.68L199.582 26.28H207.382L207.934 28.68H199.054ZM203.446 20.952L200.806 27.12L200.758 27.744L198.43 33H195.238L203.446 15.264L211.654 33H208.462L206.182 27.888L206.11 27.192L203.446 20.952ZM217.208 16.2H220.04V33H217.208V16.2ZM218.888 18.696V16.2H222.272C223.488 16.2 224.544 16.416 225.44 16.848C226.352 17.264 227.056 17.864 227.552 18.648C228.048 19.416 228.296 20.336 228.296 21.408C228.296 22.48 228.048 23.408 227.552 24.192C227.056 24.976 226.352 25.584 225.44 26.016C224.544 26.432 223.488 26.64 222.272 26.64H218.888V24.144H222.272C223.248 24.144 224.032 23.912 224.624 23.448C225.216 22.984 225.512 22.304 225.512 21.408C225.512 20.512 225.216 19.84 224.624 19.392C224.032 18.928 223.248 18.696 222.272 18.696H218.888ZM234.683 16.2H237.515V33H234.683V16.2ZM236.363 18.696V16.2H239.747C240.963 16.2 242.019 16.416 242.915 16.848C243.827 17.264 244.531 17.864 245.027 18.648C245.523 19.416 245.771 20.336 245.771 21.408C245.771 22.48 245.523 23.408 245.027 24.192C244.531 24.976 243.827 25.584 242.915 26.016C242.019 26.432 240.963 26.64 239.747 26.64H236.363V24.144H239.747C240.723 24.144 241.507 23.912 242.099 23.448C242.691 22.984 242.987 22.304 242.987 21.408C242.987 20.512 242.691 19.84 242.099 19.392C241.507 18.928 240.723 18.696 239.747 18.696H236.363ZM253.262 27.6C253.63 28.24 254.022 28.808 254.438 29.304C254.87 29.784 255.342 30.16 255.854 30.432C256.366 30.688 256.942 30.816 257.582 30.816C258.35 30.816 258.974 30.608 259.454 30.192C259.934 29.776 260.174 29.24 260.174 28.584C260.174 27.96 260.022 27.464 259.718 27.096C259.414 26.712 258.99 26.392 258.446 26.136C257.918 25.864 257.302 25.6 256.598 25.344C256.182 25.2 255.718 25.008 255.206 24.768C254.694 24.512 254.206 24.2 253.742 23.832C253.278 23.448 252.894 22.984 252.59 22.44C252.286 21.88 252.134 21.208 252.134 20.424C252.134 19.528 252.366 18.744 252.83 18.072C253.294 17.384 253.918 16.856 254.702 16.488C255.502 16.104 256.406 15.912 257.414 15.912C258.406 15.912 259.27 16.088 260.006 16.44C260.742 16.792 261.358 17.24 261.854 17.784C262.366 18.328 262.766 18.896 263.054 19.488L260.75 20.784C260.542 20.368 260.278 19.984 259.958 19.632C259.638 19.264 259.262 18.976 258.83 18.768C258.414 18.544 257.926 18.432 257.366 18.432C256.582 18.432 256.006 18.616 255.638 18.984C255.27 19.336 255.086 19.752 255.086 20.232C255.086 20.664 255.214 21.056 255.47 21.408C255.742 21.744 256.158 22.064 256.718 22.368C257.278 22.672 258.006 22.984 258.902 23.304C259.398 23.48 259.894 23.704 260.39 23.976C260.902 24.248 261.366 24.592 261.782 25.008C262.198 25.408 262.526 25.88 262.766 26.424C263.022 26.968 263.15 27.608 263.15 28.344C263.15 29.128 262.998 29.832 262.694 30.456C262.39 31.08 261.974 31.608 261.446 32.04C260.918 32.456 260.318 32.776 259.646 33C258.99 33.24 258.302 33.36 257.582 33.36C256.59 33.36 255.67 33.168 254.822 32.784C253.99 32.384 253.262 31.856 252.638 31.2C252.014 30.544 251.518 29.832 251.15 29.064L253.262 27.6Z" fill="#1B4242"/>
</svg>
